<svg width="40" height="40" viewBox="0 0 40 40" fill="none" xmlns="http://www.w3.org/2000/svg">
<path d="M33.3333 35H28.3333V31.6666H33.3333V35ZM33.3333 28.3333H28.3333V25H33.3333V28.3333ZM33.3333 21.6666H28.3333V18.3333H33.3333V21.6666ZM40 13C39.3333 7.49998 34.6667 3.33331 29.1667 3.33331C26.3333 3.33331 23.5 4.49998 21.5 6.49998C20.3333 7.66665 19.5 8.83331 19 10.3333L26 15H36.6667V36.6666H40V13ZM22.1667 11.6666C23.1667 8.66665 26 6.66665 29.1667 6.66665C32.3333 6.66665 35.1667 8.66665 36.1667 11.6666H22.1667ZM12.5 9.99998L0 18.3333V36.6666H25V18.3333L12.5 9.99998ZM21.6667 33.3333H16.6667V23.3333H8.33333V33.3333H3.33333V20L12.5 14.1666L21.6667 20V33.3333Z" fill="black"/>
</svg>
