<svg width="40" height="40" viewBox="0 0 40 40" fill="none" xmlns="http://www.w3.org/2000/svg">
<path d="M18.3333 33.3333H10C9.52778 33.3333 9.13167 33.1733 8.81167 32.8533C8.49278 32.5344 8.33333 32.1388 8.33333 31.6666V20H5.5C5.11111 20 4.84722 19.8194 4.70833 19.4583C4.56944 19.0972 4.65278 18.7916 4.95833 18.5416L18.875 5.99996C19.1806 5.6944 19.5556 5.54163 20 5.54163C20.4444 5.54163 20.8194 5.6944 21.125 5.99996L26.6667 11V8.33329C26.6667 7.86107 26.8267 7.46496 27.1467 7.14496C27.4656 6.82607 27.8611 6.66663 28.3333 6.66663H30C30.4722 6.66663 30.8678 6.82607 31.1867 7.14496C31.5067 7.46496 31.6667 7.86107 31.6667 8.33329V15.5L35.0417 18.5416C35.3472 18.7916 35.4306 19.0972 35.2917 19.4583C35.1528 19.8194 34.8889 20 34.5 20H31.6667V31.6666C31.6667 32.1388 31.5067 32.5344 31.1867 32.8533C30.8678 33.1733 30.4722 33.3333 30 33.3333H21.6667V23.3333H18.3333V33.3333ZM11.6667 30H15V21.6666C15 21.1944 15.16 20.7983 15.48 20.4783C15.7989 20.1594 16.1944 20 16.6667 20H23.3333C23.8056 20 24.2017 20.1594 24.5217 20.4783C24.8406 20.7983 25 21.1944 25 21.6666V30H28.3333V17L20 9.49996L11.6667 17V30ZM16.6667 16.7083H23.3333C23.3333 15.8194 23 15.09 22.3333 14.52C21.6667 13.9511 20.8889 13.6666 20 13.6666C19.1111 13.6666 18.3333 13.9511 17.6667 14.52C17 15.09 16.6667 15.8194 16.6667 16.7083Z" fill="black"/>
</svg>
