<svg width="22" height="18" viewBox="0 0 22 18" fill="none" xmlns="http://www.w3.org/2000/svg">
<path d="M15.95 6.01C18.97 6.749 21 8.133 21 9.724C21 12.091 16.52 14 11 14C5.48 14 1 12.091 1 9.724C1 8.134 3.04 6.739 6.07 6" stroke="black" stroke-width="2" stroke-linecap="round" stroke-linejoin="round"/>
<path d="M14 14L16 17M7.5 14L6 17M11 11H11.01M6 10H6.01M16 10H16.01M6 6C6 7.105 8.239 8 11 8C13.761 8 16 7.105 16 6V5.965C16 3.223 13.761 1 11 1C8.239 1 6 3.223 6 5.965V6Z" stroke="black" stroke-width="2" stroke-linecap="round" stroke-linejoin="round"/>
</svg>
