<svg width="20" height="19" viewBox="0 0 20 19" fill="none" xmlns="http://www.w3.org/2000/svg">
<path d="M0 18V16H2V0H12V1H16V7H14V3H12V9H10V2H4V16H9V18H0ZM14 19L13.7 17.5C13.5 17.4167 13.3127 17.325 13.138 17.225C12.9627 17.125 12.7917 17.0083 12.625 16.875L11.175 17.375L10.175 15.65L11.3 14.65C11.2667 14.4 11.25 14.1873 11.25 14.012C11.25 13.8373 11.2667 13.625 11.3 13.375L10.175 12.375L11.175 10.65L12.625 11.15C12.7917 11.0167 12.9627 10.8957 13.138 10.787C13.3127 10.679 13.5 10.5833 13.7 10.5L14 9H16L16.3 10.5C16.5 10.5833 16.6877 10.675 16.863 10.775C17.0377 10.875 17.2083 10.9917 17.375 11.125L18.825 10.625L19.825 12.35L18.7 13.35C18.7333 13.6 18.75 13.8127 18.75 13.988C18.75 14.1627 18.7333 14.375 18.7 14.625L19.825 15.625L18.825 17.35L17.375 16.875C17.2083 17.0083 17.0377 17.125 16.863 17.225C16.6877 17.325 16.5 17.4167 16.3 17.5L16 19H14ZM15 16C15.55 16 16.021 15.8043 16.413 15.413C16.8043 15.021 17 14.55 17 14C17 13.45 16.8043 12.9793 16.413 12.588C16.021 12.196 15.55 12 15 12C14.45 12 13.979 12.196 13.587 12.588C13.1957 12.9793 13 13.45 13 14C13 14.55 13.1957 15.021 13.587 15.413C13.979 15.8043 14.45 16 15 16ZM8 10C7.71667 10 7.47933 9.904 7.288 9.712C7.096 9.52067 7 9.28333 7 9C7 8.71667 7.096 8.479 7.288 8.287C7.47933 8.09567 7.71667 8 8 8C8.28333 8 8.521 8.09567 8.713 8.287C8.90433 8.479 9 8.71667 9 9C9 9.28333 8.90433 9.52067 8.713 9.712C8.521 9.904 8.28333 10 8 10Z" fill="#767676"/>
</svg>
