<svg width="24" height="24" viewBox="0 0 24 24" fill="none" xmlns="http://www.w3.org/2000/svg">
<path d="M20 12H22V14H20C18.62 14 17.26 13.65 16 13C13.5 14.3 10.5 14.3 8 13C6.74 13.65 5.37 14 4 14H2V12H4C5.39 12 6.78 11.53 8 10.67C10.44 12.38 13.56 12.38 16 10.67C17.22 11.53 18.61 12 20 12ZM20 6.00004H22V8.00004H20C18.62 8.00004 17.26 7.65004 16 7.00004C13.5 8.30004 10.5 8.30004 8 7.00004C6.74 7.65004 5.37 8.00004 4 8.00004H2V6.00004H4C5.39 6.00004 6.78 5.53004 8 4.67004C10.44 6.38004 13.56 6.38004 16 4.67004C17.22 5.53004 18.61 6.00004 20 6.00004ZM20 18H22V20H20C18.62 20 17.26 19.65 16 19C13.5 20.3 10.5 20.3 8 19C6.74 19.65 5.37 20 4 20H2V18H4C5.39 18 6.78 17.53 8 16.67C10.44 18.38 13.56 18.38 16 16.67C17.22 17.53 18.61 18 20 18Z" fill="#767676"/>
</svg>
