<svg width="20" height="25" viewBox="0 0 20 25" fill="none" xmlns="http://www.w3.org/2000/svg">
<path d="M10 5.625C10.9472 5.625 11.8556 5.95424 12.5254 6.54029C13.1952 7.12634 13.5714 7.9212 13.5714 8.75C13.5714 9.16038 13.4791 9.56674 13.2996 9.94589C13.1201 10.325 12.857 10.6695 12.5254 10.9597C12.1937 11.2499 11.8 11.4801 11.3667 11.6371C10.9334 11.7942 10.469 11.875 10 11.875C9.0528 11.875 8.14439 11.5458 7.47462 10.9597C6.80485 10.3737 6.42857 9.5788 6.42857 8.75C6.42857 7.9212 6.80485 7.12634 7.47462 6.54029C8.14439 5.95424 9.0528 5.625 10 5.625ZM10 0C12.6522 0 15.1957 0.921872 17.0711 2.56282C18.9464 4.20376 20 6.42936 20 8.75C20 15.3125 10 25 10 25C10 25 0 15.3125 0 8.75C0 6.42936 1.05357 4.20376 2.92893 2.56282C4.8043 0.921872 7.34784 0 10 0ZM10 2.5C8.1056 2.5 6.28878 3.15848 4.94924 4.33058C3.60969 5.50269 2.85714 7.0924 2.85714 8.75C2.85714 10 2.85714 12.5 10 20.8875C17.1429 12.5 17.1429 10 17.1429 8.75C17.1429 7.0924 16.3903 5.50269 15.0508 4.33058C13.7112 3.15848 11.8944 2.5 10 2.5Z" fill="black"/>
</svg>
