<svg width="20" height="20" viewBox="0 0 20 20" fill="none" xmlns="http://www.w3.org/2000/svg">
<path d="M0 20V17.4194C0.633333 17.4194 1.1 17.2043 1.4 16.7742C1.7 16.3441 2.34167 16.129 3.325 16.129C4.29167 16.129 4.94167 16.3441 5.275 16.7742C5.60833 17.2043 6.06667 17.4194 6.65 17.4194C7.28333 17.4194 7.754 17.2043 8.062 16.7742C8.37067 16.3441 9.01667 16.129 10 16.129C10.9833 16.129 11.6293 16.3441 11.938 16.7742C12.246 17.2043 12.7167 17.4194 13.35 17.4194C13.9333 17.4194 14.3917 17.2043 14.725 16.7742C15.0583 16.3441 15.7083 16.129 16.675 16.129C17.6583 16.129 18.3 16.3441 18.6 16.7742C18.9 17.2043 19.3667 17.4194 20 17.4194V20C19.05 20 18.4 19.7849 18.05 19.3548C17.7 18.9247 17.2333 18.7097 16.65 18.7097C16.05 18.7097 15.5833 18.9247 15.25 19.3548C14.9167 19.7849 14.275 20 13.325 20C12.3417 20 11.7 19.7849 11.4 19.3548C11.1 18.9247 10.6333 18.7097 10 18.7097C9.36667 18.7097 8.9 18.9247 8.6 19.3548C8.3 19.7849 7.65833 20 6.675 20C5.725 20 5.08333 19.7849 4.75 19.3548C4.41667 18.9247 3.95 18.7097 3.35 18.7097C2.76667 18.7097 2.3 18.9247 1.95 19.3548C1.6 19.7849 0.95 20 0 20ZM3.75 14.8387C3.35 14.8387 2.96667 14.7419 2.6 14.5484C2.23333 14.3548 1.90833 14.0753 1.625 13.7097L0.25 11.9355L1.65 10.129L3.025 11.871C3.125 12 3.23767 12.0968 3.363 12.1613C3.48767 12.2258 3.61667 12.2581 3.75 12.2581H5V7.90323L3.675 9.16129L2.5 7.09677L10 0L17.5 7.09677L16.325 9.19355L15 7.93548V12.2581H16.25C16.3833 12.2581 16.5123 12.2258 16.637 12.1613C16.7623 12.0968 16.875 12 16.975 11.871L18.35 10.129L19.75 11.9355L18.375 13.7097C18.0917 14.0753 17.7667 14.3548 17.4 14.5484C17.0333 14.7419 16.65 14.8387 16.25 14.8387H3.75ZM7 12.2581H9V9.67742H11V12.2581H13V6.03226L10 3.19355L7 6.03226V12.2581Z" fill="#767676"/>
</svg>
